<?xml version="1.0" encoding="UTF-8"?>
<svg id="Camada_1" data-name="Camada 1" xmlns="http://www.w3.org/2000/svg" viewBox="0 0 554.66 516.91">
  <defs>
    <style>
      .cls-1 {
        fill: #5c5545;
      }
    </style>
  </defs>
  <path class="cls-1" d="M554.65,346.86c-16.52,13.78-33.42,31.34-53.65,39.7-51.54,21.31-116.51,3.79-149.71-40.64l9.45-2.01,84.84-231.81h-159c1.09,28.61.81,57.41,1.77,86.03,2.44,72.59,11.6,155.62,7.54,227.35-1.07,18.93-10.93,26.56,6.43,43.35,26.5,25.64,79.63,35.24,114.07,44.95,1.93.54,5.59.45,5.17,3.13H133.1c-.42-2.69,3.24-2.59,5.17-3.13,35.9-10.12,83.18-17.91,112.18-43.13,20.54-17.87,10.02-26.68,8.4-48.96-2.95-40.59,4.26-94.7,5.59-136.68l5.47-172.91H107.22l88.07,232.66,8.07,1.16c-18.49,16.49-36.49,34.97-60.6,42.92-50.95,16.8-112,.43-142.76-43.82l9.04-.24L94.08,114.66c1.29-5.73-11.92-.64-14.4-2.75l-2.05-27.53c63.07.65,130.2-56.39,187.63-7.37,6.67-1.47,10.33-65.68,10.22-75.79,2.25-2.93,3.36,0,3.7,2.72,1.24,10.15,2.52,71.23,10.19,73.05,54.77-46.23,126.87,3.55,187.64,7.39l-2.05,27.53-14.59.21,84.85,231.75,9.44,1.14v1.85h-.01ZM183.02,345.01L99.84,125.05,20.32,345.01h162.7ZM371.61,345.01h162.7l-82.26-219.98-80.45,219.98h.01Z"/>
</svg>