<?xml version="1.0" encoding="UTF-8"?>
<svg id="Camada_1" data-name="Camada 1" xmlns="http://www.w3.org/2000/svg" viewBox="0 0 1031.24 485.28">
  <defs>
    <style>
      .cls-1 {
        fill: #fff;
      }
    </style>
  </defs>
  <g>
    <rect class="cls-1" x="439.45" y="145.67" width="218.81" height="8.33" transform="translate(136.93 542.28) rotate(-58.88)"/>
    <path class="cls-1" d="M567.24,82.72l-2.59,3.48c-41.36,7.31-61.53,41.51-58.86,81.96.21,3.16,2.37,10.95,1.82,13.24-.29,1.23-8.02,13.77-9.32,15.65-.39.56.11,1.19-1.42.83-9.84-23.75-10.45-53.09,2.67-75.7,13.83-23.81,40.63-37.78,67.7-39.47Z"/>
    <path class="cls-1" d="M633.59,231.6c-4.58,2.73-9.36,5.18-14.36,7.07-25.04,9.42-58.53,8.62-82.92-2.49-1.46-.67-10.53-5.28-10.58-5.97,1.02-1.35,4.49-8.96,5.97-8.63,25.97,25.75,76.48,29.63,95.8-5.99,2.6-4.79,3.48-9.86,5.61-14.23s3.42.27,3.27,3.27c-.36,7.06-.89,16.79-1.95,23.64-.18,1.14-.29,2.3-.82,3.33Z"/>
    <path class="cls-1" d="M634.42,127.5l-2.89-.63c-3.47-13.1-10.2-27.4-22.7-33.94l3.84-6.75c1.16-.72,14.42,4.94,16.2,6.23,2.26,1.63,2.48,2.7,2.92,5.4,1.18,7.38,2.07,17.35,2.62,24.89.12,1.59-.04,3.21,0,4.8Z"/>
  </g>
  <path class="cls-1" d="M732.32,152.46l15.68,3.82c36.68,13.19,35.84,63.83,2.88,80.97-15.29,7.95-33.03,5.48-49.57,4.12l-40.05.39-.6-2.92c9.46-.12,21.49.87,22.96-11.27l.1-127.29c-1.02-13.75-9.89-11.49-20.19-12.45-1.93-.18-3.76-.46-2.59-2.6,1.3-1.78,15.08,0,17.92.06,16.05.33,33.11-2.52,48.64-1.3,43.26,3.42,42.82,56.98,4.81,68.46ZM697.12,153.09h20.79c3.4,0,12.18-3.33,15.24-5.23,19.7-12.2,18.57-51.05-4.99-58.77-6.41-2.1-24.56-4.27-28.63,2.12-.68,1.07-2.42,6.15-2.42,7.17v54.71ZM697.12,158.85v67.5c0,1.2,2.5,6.34,3.49,7.39,6.7,7.1,31.57,5.61,40.19,2.37,25.57-9.61,25.55-48.92,8.17-66.09-13.74-13.58-33.93-12.7-51.85-11.18Z"/>
  <g>
    <path class="cls-1" d="M466.15,37.92l-2.62-.38c-2.43-23.73-20.56-39.08-44.74-33.24-12.22,2.95-19.49,15.46-19.84,27.51-1.31,45.46,77.68,41.82,73.59,92.79-2.8,34.86-42.4,43.81-70.86,35.69-3.18-.91-14.42-4.76-15.78-7.25l-4.84-37.06,2.9.61c2.8,18.12,13.68,37.81,32.9,41.96,18.48,3.99,39.95-3.03,41.63-24.31,4.02-50.65-63.35-47.1-71.39-86.69-8.97-44.16,45.68-58.34,76.37-39.26l2.68,29.64Z"/>
    <path class="cls-1" d="M343.95,37.92l-2.51-.05c-2.47-22.09-16.3-36.43-39.38-34.5-25.29,2.11-31.84,33.44-17.29,51.19,17.02,20.77,62.6,29.78,65.58,60.46,4.35,44.84-45.98,57.25-79.76,42.02-5.26-2.37-6.84-2.23-7.81-8.19-1.37-8.46-2.65-19.53-3.27-28.08-.12-1.59.04-3.21,0-4.8l2.51.04c2.65,20.13,15.21,40.85,37.01,43.29,24.83,2.78,41.45-11.66,37.18-37.18-6.65-39.66-72.43-39.36-72.16-83.19.22-34.72,37.46-43.74,65.34-36.04,3,.83,11.46,3.16,12.37,6.18l2.2,28.83Z"/>
  </g>
  <path class="cls-1" d="M356.11,484.53v-30.07h15.68c.27,0,4.36,1.69,5.01,2.03,10.2,5.43,9.94,20.99-.24,26.41-.75.4-3.58,1.63-4.13,1.63h-16.32ZM361.22,480.06h9.92c.27,0,2.99-1.3,3.49-1.63,5.23-3.4,6.07-11.37,1.96-15.98-.76-.85-5.2-3.51-6.09-3.51h-9.28v21.11Z"/>
  <path class="cls-1" d="M620.03,454.46c12.23,1.74,17,17.93,8.14,26.24-.98.92-5.81,3.84-6.86,3.84h-16.32v-30.07c4.69.47,10.51-.64,15.04,0ZM610.11,480.06h9.92c3.72,0,7.13-5.75,7.38-9.25.77-10.81-8.45-12.74-17.3-11.86v21.11Z"/>
  <path class="cls-1" d="M483.15,469.6c0,8.66-7.02,15.68-15.68,15.68s-15.68-7.02-15.68-15.68,7.02-15.68,15.68-15.68,15.68,7.02,15.68,15.68ZM474.89,461.72c-8.77-8.1-23.24,2.42-16.54,13.67,2.52,4.24,6.63,5.26,11.35,4.68,8.35-1.03,11.4-12.62,5.2-18.34Z"/>
  <path class="cls-1" d="M570.34,454.57l12.9,29.96c-5.79,1.01-6.33-1.53-7.76-6.31l-15.49-.12c-2.17,4.52-1.81,7.55-8.1,6.42l12.86-29.04c1.12-1.68,3.79-1.04,5.59-.92ZM573,473.01l-5.75-12.79-5.12,12.79c3.85.63,7.02.63,10.87,0Z"/>
  <path class="cls-1" d="M670.15,454.57l12.9,29.96-5.68-.07-2.41-6.35-15.64.43c-1.62,4.72-1.76,6.95-7.61,6l12.88-29.98,5.57.02ZM672.81,473.01l-5.75-12.79-5.12,13.43,10.87-.64Z"/>
  <path class="cls-1" d="M322.13,454.54l12.87,29.99-5.67-.08-2.32-5.68-15.28-.55c-3.03,4.16-1.4,7.61-8.08,6.31l12.9-29.96,5.59-.03ZM313.88,473.66h9.92l.69-1.3-5.17-11.5c-1.33-.28-.88.54-1.24,1.29-.75,1.58-4.88,10.82-4.19,11.51Z"/>
  <path class="cls-1" d="M724.55,457.12l-1.25,4.33c-.66.47-14.1-6.32-14.08,1.01.01,5.72,14.42,3.56,15.9,11.67,2.36,12.91-17.33,13.14-23.34,5.62l2.12-3.49c3.31,2.1,12.08,6.39,15.02,2.25,4.22-5.95-8.46-7.26-11.51-9.06-1.51-.89-3.58-3.36-3.85-5.11-1.78-11.27,14.18-11.93,20.99-7.22Z"/>
  <path class="cls-1" d="M531.41,481.34c-11.91,7.41-28.42,2.74-27.54-13.15.76-13.61,18.12-17.77,27.5-9.58l-2.93,3.46c-4.03-2.35-6.79-3.9-11.63-2.69-12.99,3.25-9.45,23.72,6.45,20.53,5.56-1.11,3.26-5.85,3.66-10.09h4.48v11.52Z"/>
  <path class="cls-1" d="M914.34,365.52c4.39.78,6.29,5.69,3.52,9.28l-5.76,4.79c8.6,1.03,9.08,10.48,2.51,15-6.42,4.42-13.83,1.69-21.07,2.27-.08-1.2,1.6-.38,2.57-.94.66-.38.85-1.42,1.1-2.11,1.41-3.87,4.33-20.52,4.61-24.88.05-.76.22-1.49-.22-2.19l-2.93-1.23c4.71.58,11.22-.79,15.68,0ZM905.06,378.96c6.71,2.59,12.35-9.12,7.28-12.07-6.68-3.9-6.53,8.16-7.28,12.07ZM912.54,382.36c-1.92-2.1-5.5-1.46-8.08-1.45.2,2.67-3.44,13.57-1.35,15.04,1.48,1.05,5.64-.36,7.05-1.35,3.18-2.22,5.22-9.14,2.38-12.25Z"/>
  <polygon class="cls-1" points="417.53 478.77 427.21 454.55 432.24 454.46 419.8 484.58 414.9 484.14 403.45 454.47 408.89 455.1 417.53 478.77"/>
  <path class="cls-1" d="M985.68,360.41l-3.83,23.67c1.47-.98,2.18-3.23,3.52-4.47,3.36-3.13,9.05-4.36,10.29,1.24,1.34,6.05-4.77,14.67-10.73,16.23-3.15.83-8.48,1.16-8.89-3.07-.66-6.68,4.11-19.28,4.55-26.87.06-.96-.05-1.94-.03-2.9l-3.19.32,8.31-4.16ZM987.43,380.33c-4.73.94-9.69,14.47-5.13,15.8,6.6,1.91,10.8-13.8,7.22-15.59-.67-.41-1.35-.35-2.09-.2Z"/>
  <path class="cls-1" d="M21.4,366.25c.06,1.51.67,6.3-.87,6.95-.15-6.78-11.11-10.66-11.63-2.15-.42,6.98,12.21,8.88,11.27,17.76-.78,7.28-8.68,9.37-14.92,8.63-8.01-.94-4.76-3.59-3.58-9.52,1.58,1.17,1.39,3.72,2.54,5.44,3.16,4.72,9.93,3.6,10.76-2.1,1.16-7.92-11.53-9.99-11.04-17.52.53-8.15,11.14-10.79,17.47-7.49Z"/>
  <path class="cls-1" d="M195.51,373.2c-1.76.29-1.68-2.54-2.66-4.05-4.25-6.5-11.31-1.81-9.2,4.73,1.36,4.24,10,6.87,10.61,12.43,1.18,10.77-11.9,13.25-19.79,9.87l1.22-8.26,3.19,6.08c3.32,4.01,9.47,2.83,10.21-2.62,1.13-8.22-9.08-9.4-10.54-14.96-2.05-7.76,5.29-12,12.16-11.54,7.06.48,4.78,2.79,4.81,8.31Z"/>
  <path class="cls-1" d="M675.37,373.84c-1.68.32-.99-.27-1.33-.91-1.54-2.93-2.09-5.26-5.81-6.33-14.59-4.21-19.04,26.72-7.43,29.87,5.48,1.49,8.9-4.52,12.65-7.27-.75,5.6-.99,7.35-6.88,8.15-6.9.94-14.7.13-17.26-7.36-4.86-14.23,10.58-29.41,24.79-24.15,3.58,1.33.42,4.86,1.27,8Z"/>
  <path class="cls-1" d="M441.19,374.48l-3.19-5.89c-6.97-5.94-14.56.21-16.45,7.68-4.12,16.28,5.2,28.81,18.36,12.93-.98,5.64-.77,7.32-6.88,8.15-7.15.97-15.05.05-17.4-7.87-4.51-15.2,12.84-30.56,26.73-22.3l-1.18,7.3Z"/>
  <path class="cls-1" d="M798.22,384.08c1.05-.27,1.08-1.87,1.91-2.88,1.87-2.29,5.14-5.45,8.33-3.84,3.81,1.92-.39,13.19-.61,16.61l1.55.99,1.93-1.91c.99,2.44-5.76,6.12-7.27,3.74-1.45-3.84,2.97-13.4,1.13-16.15l-1.43-.96c-6.05,1.26-6.45,15.24-8.41,17.22-1.2,1.21-3.96,1.32-3.78-1.16.29-3.85,3.13-11.32,2.82-14.55-.08-.82-.69-1.78-1.61-1.58l-2.89,1.6c1.39-1.64,4.92-4.83,7.24-4.1,2.75,1.78,1.14,4.41,1.08,6.97Z"/>
  <path class="cls-1" d="M258.22,384.08l3.41-4.89c12.29-8.02,7.37,8.13,6.21,14.75l1.55,1.02,1.93-1.91c1.01,1.09-2.38,3.84-3.49,4.19-4.49,1.44-4.09-1.66-3.86-5.15.13-1.99,3.33-12.73-.23-12.42-2.63.98-3.7,3.09-4.81,5.47-1.47,3.14-2.18,9.6-3.24,11.32-.56.92-2.94,1.43-3.91.76l2.54-16.59-1.47-.95-2.33.89c5.34-5.49,9.15-4.73,7.68,3.51Z"/>
  <path class="cls-1" d="M711.83,393.04c1.13,1.23-4.31,4.65-6.07,4.51-2.73-.21-1.27-5.28-1.61-7.07l-3.81,4.82c-2.75,2.62-8.94,3.9-9-1.31-.07-5.55,6.88-16.05,12.54-16.9,3.75-.57,5,2.36,7-.68l-2.85,17.53,1.55,1.02,2.24-1.92ZM696.57,393.59c5.61,2.33,11.68-11.65,7.6-13.68-5.77-2.87-9.7,9.9-7.6,13.68Z"/>
  <path class="cls-1" d="M128.97,393.04c1.13,1.25-6.4,6.98-7.58,3.43l-.1-5.98-3.81,4.82c-1.95,1.61-4.5,2.95-7.06,1.9-4.62-2.24.74-11.64,2.94-14.34,2.73-3.37,5.62-5.78,10.15-5.83,1.64-.02,3.08,1.59,4.51-.62l-2.85,17.56,1.55.99,2.24-1.92ZM118.55,379.73c-3.8,1.15-7.53,12.63-3.86,13.86,4.69,1.58,9.44-9.49,7.61-13.39-.62-.89-2.77-.77-3.75-.47Z"/>
  <path class="cls-1" d="M848.75,393.68c-.09,2.06-4.41,4.26-5.96,3.77-2.52-1.57-1.32-3.43-1.14-5.45.06-.67.5-1.69-.56-1.52-1.64,4.22-6.58,8.82-11.22,6.41-3.96-6.08,6.19-19.5,12.18-19.89,3.36-.22,4.12,2.44,6.7-.6,0,4.67-3.43,12.86-3.16,17.03.15,2.35,1.98,1.33,3.16.25ZM834.13,393.59c4.31,2.73,12.05-10.54,7.6-13.68-6.5-3.24-9.87,12.25-7.6,13.68Z"/>
  <path class="cls-1" d="M574.91,393.68c-.09,2.06-4.41,4.26-5.96,3.77-2.52-1.57-1.32-3.43-1.14-5.45.06-.67.5-1.69-.56-1.52-1.64,4.22-6.58,8.82-11.22,6.41-3.96-6.08,6.19-19.5,12.18-19.89,3.36-.22,4.12,2.44,6.7-.6,0,4.67-3.43,12.86-3.16,17.03.15,2.35,1.98,1.33,3.16.25ZM560.29,393.59c4.31,2.73,12.05-10.54,7.6-13.68-6.5-3.24-9.87,12.25-7.6,13.68Z"/>
  <path class="cls-1" d="M231.98,393.68c-.09,2.06-4.41,4.26-5.96,3.77-2.52-1.57-1.32-3.43-1.14-5.45.06-.67.5-1.69-.56-1.52-1.64,4.22-6.58,8.82-11.22,6.41-3.96-6.08,6.19-19.5,12.18-19.89,3.36-.22,4.12,2.44,6.7-.6,0,4.67-3.43,12.86-3.16,17.03.15,2.35,1.98,1.33,3.16.25ZM217.35,393.59c4.31,2.73,12.05-10.54,7.6-13.68-6.5-3.24-9.87,12.25-7.6,13.68Z"/>
  <path class="cls-1" d="M57.31,377.04l-2.55,17.91,2.55-.32c-1.59,2.44-6.27,4.7-7.03.61-.35-1.89.75-3.18.32-4.77-3.5,6.9-15.17,12.13-12.04-.52,1-4.03,7.36-11.94,11.55-12.77,2.85-.57,4.77,1.12,7.2-.14ZM47.53,379.73c-3.51,1.06-6.84,12.89-3.89,13.88,4.57,1.53,10.5-9.92,7.97-13.11-1.02-1.09-2.72-1.18-4.08-.77Z"/>
  <path class="cls-1" d="M953.69,394.95l2.55-.32c-1.25,1.53-4.2,4.17-6.09,2.26-1.83-2.01-.19-4.2-.62-6.41-1.22,3.32-9.62,10.7-12.01,5.61-2.73-5.83,6.58-18.69,12.65-19.09,3.36-.22,4.12,2.44,6.7-.6l-3.19,18.55ZM942.25,393.59c4.69,2.95,11.82-11.57,7.6-13.68-6.41-3.21-10.12,12.1-7.6,13.68Z"/>
  <path class="cls-1" d="M328.42,377.19c15.91-2.94,10.35,23.55-4.49,20.18-7.8-1.77-4.41-18.54,4.49-20.18ZM328.41,378.44c-4.23,1.25-5.01,15.12-2.1,17.2,4.89,3.5,6.7-5.98,6.8-9.3.09-3.05-.35-9.19-4.7-7.9Z"/>
  <path class="cls-1" d="M1021.33,377.19c16.02-3.32,10.92,22.57-3.31,20.29-8.99-1.44-5.19-18.53,3.31-20.29ZM1021.32,378.43c-2.49.75-3.67,8.03-3.69,10.44-.12,10.74,7.57,9.48,8.39-.61.26-3.23.66-11.45-4.69-9.83Z"/>
  <path class="cls-1" d="M467.26,377.19c14.18-2.62,10.64,18.27.35,20.17-14.03,2.59-10.71-18.26-.35-20.17ZM465.68,379.13c-2.86,2.74-4.51,18.19,2.06,17.14,4.11-.65,6.41-18.08.08-17.94-.61.01-1.69.37-2.13.8Z"/>
  <path class="cls-1" d="M498.91,395.46c2.32,1.33,4.2-.45,3.59-3.24-.8-3.64-6.53-4.7-6.92-8.52-.67-6.64,11.44-9.03,12.51-4.16-2.03,6.9-5.02-.72-6.52-1.14l-1.84.54c-2.43,6.14,7.38,6.52,6.62,12.32-1.04,7.92-15.11,7.85-13.26,2.19l2.72-1.6c1.48.28,2.69,3.36,3.1,3.59Z"/>
  <path class="cls-1" d="M360.66,379.04c-1.22,4.93,3.99,5.77,5.97,8.9,4,6.34-6.34,12.51-11.65,8.12-1.29-2.19.05-5.03,2.87-3.9.66.26,4.5,6.42,5.85,2.37,1.77-5.3-7.26-6.82-6.83-11.9.46-5.33,10.39-8.3,12.7-2.72-3.03,5.88-4.65-.55-6.44-1.31l-2.46.43Z"/>
  <path class="cls-1" d="M737.44,383.44c1.19-.61,1.41-2.57,2.28-3.79,4.89-6.86,9.78,2.1,5.06,2.55-3.39.32-3.44-4.24-6.55,3-.96,2.24-2.93,10.82-3.66,11.69-.93,1.11-2.9.53-4.17.63l3.16-16.89-1.47-.95-2.33.89c4.65-4.95,9.23-5.23,7.68,2.87Z"/>
  <path class="cls-1" d="M84.19,382.8c1.34-.88,1.66-3.24,2.92-4.43,2.82-2.64,6.13-1.01,5.98,2.75-1.63,2.86-4.58-1.08-6.35.04-1.96,1.25-4.82,12.82-5.24,15.58l-4.35.77,2.55-17.91-2.55.32c3.84-4.65,7.97-3.66,7.04,2.87Z"/>
  <path class="cls-1" d="M533.97,373.84l-.63,3.83c1.59.09,3.22-.11,4.81,0,.71.05,2.11-.37,1.58.95-.98,2.42-4.88.4-7.02.98.48,3.18-3.35,12.9-1.02,14.77s3.45-.94,5.49-.39c-2.51,3.01-6.41,4.72-10.08,2.73-2.48-2.49,1.94-13.29,1.17-17.42l-1.96-.98,3.65-1.16,4.02-3.33Z"/>
  <path class="cls-1" d="M297.88,373.84l-.63,3.83c1.59.09,3.22-.11,4.81,0,.71.05,2.11-.37,1.58.95-1.09,2.71-4.85-.23-6.75,1.57.32,2.86-4.23,13.63-.46,14.66l4.01-.23c-14.46,9.73-9.45-5.81-7.7-14.14l-1.89-2.16c1.02-.19,2.27-.46,3.14-1.02,1.82-1.17,1.98-3.35,3.89-3.46Z"/>
  <path class="cls-1" d="M768.79,394.95l2.55-.32c-11.25,9.75-5.38-8.44-4.51-14.01l-1.55-1.02-2.89,1.6c15.52-14.33,4.58,11.51,6.4,13.75Z"/>
  <path class="cls-1" d="M598.44,392.55c2.05,3.82-.18,8.63-3.68,10.72l1.92-5.76c-6.4.1-3.99-8.24,1.76-4.97Z"/>
  <circle class="cls-1" cx="770.06" cy="369.04" r="2.8"/>
</svg>