<?xml version="1.0" encoding="UTF-8"?>
<svg id="Camada_1" data-name="Camada 1" xmlns="http://www.w3.org/2000/svg" viewBox="0 0 705.56 335.85">
  <defs>
    <style>
      .cls-1 {
        fill: #f1eee9;
      }
    </style>
  </defs>
  <g>
    <rect class="cls-1" x="246.08" y="199.17" width="299.14" height="11.39" transform="translate(15.78 437.69) rotate(-58.88)"/>
    <path class="cls-1" d="M420.76,113.08l-3.54,4.76c-56.54,9.99-84.12,56.75-80.47,112.05.29,4.32,3.24,14.97,2.49,18.1-.4,1.68-10.96,18.83-12.74,21.4-.53.77.15,1.63-1.94,1.13-13.45-32.47-14.29-72.58,3.65-103.49,18.91-32.55,55.55-51.65,92.55-53.96h0Z"/>
    <path class="cls-1" d="M511.47,316.62c-6.26,3.73-12.8,7.08-19.63,9.67-34.23,12.88-80.02,11.78-113.36-3.4-2-.92-14.4-7.22-14.46-8.16,1.39-1.85,6.14-12.25,8.16-11.8,35.5,35.2,104.56,40.51,130.97-8.19,3.55-6.55,4.76-13.48,7.67-19.45,2.91-5.97,4.68.37,4.47,4.47-.49,9.65-1.22,22.95-2.67,32.32-.25,1.56-.4,3.14-1.12,4.55h-.03Z"/>
    <path class="cls-1" d="M512.61,174.3l-3.95-.86c-4.74-17.91-13.94-37.46-31.03-46.4l5.25-9.23c1.59-.98,19.71,6.75,22.15,8.52,3.09,2.23,3.39,3.69,3.99,7.38,1.61,10.09,2.83,23.72,3.58,34.03.16,2.17-.05,4.39,0,6.56h.01Z"/>
  </g>
  <path class="cls-1" d="M646.45,208.43l21.44,5.22c50.15,18.03,49,87.26,3.94,110.69-20.9,10.87-45.16,7.49-67.77,5.63l-54.75.53-.82-3.99c12.93-.16,29.38,1.19,31.39-15.41l.14-174.02c-1.39-18.8-13.52-15.71-27.6-17.02-2.64-.25-5.14-.63-3.54-3.55,1.78-2.43,20.62,0,24.5.08,21.94.45,45.27-3.45,66.5-1.78,59.14,4.68,58.54,77.9,6.58,93.59h.01ZM598.32,209.29h28.42c4.65,0,16.65-4.55,20.83-7.15,26.93-16.68,25.39-69.79-6.82-80.35-8.76-2.87-33.58-5.84-39.14,2.9-.93,1.46-3.31,8.41-3.31,9.8v74.79h.01ZM598.32,217.16v92.28c0,1.64,3.42,8.67,4.77,10.1,9.16,9.71,43.16,7.67,54.94,3.24,34.96-13.14,34.93-66.88,11.17-90.35-18.78-18.57-46.39-17.36-70.88-15.28h0Z"/>
  <g>
    <path class="cls-1" d="M282.56,51.84l-3.58-.52c-3.32-32.44-28.11-53.43-61.16-45.44-16.71,4.03-26.64,21.14-27.12,37.61-1.79,62.15,106.2,57.17,100.61,126.85-3.83,47.66-57.97,59.89-96.87,48.79-4.35-1.24-19.71-6.51-21.57-9.91l-6.62-50.67,3.96.83c3.83,24.77,18.7,51.69,44.98,57.36,25.26,5.45,54.62-4.14,56.91-33.23,5.5-69.24-86.61-64.39-97.6-118.51-12.26-60.37,62.45-79.76,104.41-53.67l3.66,40.52h0Z"/>
    <path class="cls-1" d="M115.5,51.84l-3.43-.07C108.69,21.57,89.79,1.97,58.23,4.6,23.66,7.49,14.7,50.32,34.6,74.59c23.27,28.39,85.58,40.71,89.66,82.66,5.95,61.3-62.86,78.27-109.04,57.45-7.19-3.24-9.35-3.05-10.68-11.2-1.87-11.57-3.62-26.7-4.47-38.39-.16-2.17.05-4.39,0-6.56l3.43.05c3.62,27.52,20.79,55.85,50.6,59.18,33.95,3.8,56.67-15.94,50.83-50.83C95.83,112.73,5.9,113.14,6.27,53.22,6.57,5.75,57.48-6.58,95.6,3.95c4.1,1.13,15.67,4.32,16.91,8.45l3.01,39.41v.03Z"/>
  </g>
</svg>